<svg width="48" height="48" viewBox="0 0 48 48" fill="none" xmlns="http://www.w3.org/2000/svg">
<mask id="mask0_4831_196" style="mask-type:alpha" maskUnits="userSpaceOnUse" x="0" y="0" width="48" height="48">
<rect width="48" height="48" rx="24" fill="#D9D9D9"/>
</mask>
<g mask="url(#mask0_4831_196)">
<rect x="0.5" y="0.5" width="47" height="47" rx="23.5" stroke="#21E462"/>
<path d="M23.323 22.9485C22.2241 23.1924 21.0688 23.2621 19.8909 23.1518C17.9072 22.9717 14.0074 21.752 15.405 18.941C15.7713 18.2034 16.2109 17.4832 16.7406 16.8618C19.7951 13.2666 23.4639 10.4672 27.6343 8.39378C30.0745 7.17992 32.3569 8.91068 32.0582 11.6927C31.8216 13.9113 31.1622 16.0719 30.0407 17.9885C28.4796 20.6543 26.0845 22.3386 23.323 22.9485Z" fill="#21E462"/>
<path d="M34.9999 36.6027C34.9999 38.4787 33.5234 40.0004 31.7031 40.0004C29.8828 40.0004 28.4062 38.4787 28.4062 36.6027C28.4062 34.7268 29.8828 33.2051 31.7031 33.2051C33.5234 33.2051 34.9999 34.7268 34.9999 36.6027Z" fill="#21E462"/>
<path d="M26.5298 24.6328C26.2874 24.6909 26.0451 24.7838 25.8197 24.8942C25.104 25.2368 24.3939 25.5969 23.6951 25.9802C20.7476 27.6007 17.8847 29.5579 15.3882 31.8521C13.534 33.5538 11.7926 36.6262 14.1145 38.7461C15.3487 39.8728 17.2423 39.8961 18.7244 39.3385C20.4095 38.6996 21.779 37.4045 22.9906 36.0686C24.8222 34.0475 26.2874 31.6953 27.5386 29.2559C28.1472 28.0711 29.3476 25.7247 27.7414 24.7838C27.3526 24.5573 26.9355 24.5457 26.5354 24.6386" fill="#21E462"/>
</g>
</svg>
