<svg class="loader__logo-img fav-icon w-full h-full" width="28" height="33" viewBox="0 0 28 33" xmlns="http://www.w3.org/2000/svg">
                    <path
                        d="M14.0996 4.76758C21.4487 5.23874 27.2598 11.1956 27.2598 18.4746L27.2549 18.8291C27.0614 26.2514 20.8252 32.2107 13.1602 32.2109V27.4424C5.93101 26.9789 0.190168 21.2086 0.00488281 14.0918L0 13.7373C0 6.15078 6.31257 0.000204877 14.0996 0V4.76758ZM14.6602 7.87598C20.055 8.5813 24.2499 13.0337 24.25 18.4736C24.25 21.0285 23.2343 24.5962 19.708 27.1348C19.3719 27.3767 18.9032 27.3009 18.6611 26.9648C18.4191 26.6287 18.4959 26.16 18.832 25.918C21.8857 23.7197 22.75 20.6556 22.75 18.4736C22.7499 13.9059 19.2632 10.0797 14.6602 9.3877V30.624C20.9396 29.9022 25.7593 24.7076 25.7598 18.4746C25.7598 12.2411 20.94 7.045 14.6602 6.32324V7.87598ZM12.5996 1.58594C6.31977 2.3077 1.5 7.50384 1.5 13.7373C1.50024 19.9705 6.31998 25.1649 12.5996 25.8867V1.58594Z"/>
                </svg>